# xmcd CD database file
#
# Track frame offsets:
#	150
#	15269
#	30772
#	50391
#	66560
#	83724
#	100759
#	112713
#	127046
#	144962
#	163717
#	181053
#
# Disc length: 2650 seconds
#
# Revision: 1
# Processed by: cddbd v1.5.2PL0 Copyright (c) Steve Scherf et al.
# Submitted via: CDex 2.21
#
DISCID=870a580c
DTITLE=Tracy Lawrence - The Singer
DYEAR=2011
DGENRE=Country
TTITLE0=Roswell and Marilyn Monroe
TTITLE1=Cloud of Dust
TTITLE2=Saving Savannah
TTITLE3=The Singer
TTITLE4=Tender Enough
TTITLE5=Pills
TTITLE6=Hard Times
TTITLE7=Jealousy
TTITLE8=Heaven for a While
TTITLE9=Whole Lotta Me
TTITLE10=Paint Me a Birmingham
TTITLE11=Find Out Who Your Friends Are
EXTD=YEAR: 2011
EXTT0=
EXTT1=
EXTT2=
EXTT3=
EXTT4=
EXTT5=
EXTT6=
EXTT7=
EXTT8=
EXTT9=
EXTT10=
EXTT11=
PLAYORDER=
